:version 1.10
:name ASF
:units
  mass 1
  length 1
  angle deg
:documentation
  ASF file generated by Kaydara
:root
  axis xyz
  order  tx ty tz rx ry rz
  position 0 0 0
  orientation 0 0 0
:bonedata
  begin
    id 1
    name RightUpLegDummy
    direction -0.718183 -0.695806 0.00816078
    length 4.904
    axis 0 0 0 xyz
  end
  begin
    id 2
    name RightUpLeg
    direction -0.0736652 -0.994202 0.0783343
    length 17.4976
    axis -2.72909 -3.00389 -4.00133 xyz
    dof rx ry rz
  end
  begin
    id 3
    name RightLeg
    direction -0.0389037 -0.994596 -0.0962598
    length 16.5821
    axis 3.95836 -18.5909 -4.46993 xyz
    dof rx ry rz
  end
  begin
    id 4
    name RightFoot
    direction -0.311643 -0.412678 0.855906
    length 3.77069
    axis -1.99483 -18.8351 -3.27644 xyz
    dof rx ry rz
  end
  begin
    id 5
    name RightToes
    direction -0.317852 0.0389852 0.947339
    length 3.85082
    axis -2.00228 -18.1713 -3.25211 xyz
    dof rx ry rz
  end
  begin
    id 6
    name SpineDummy
    direction 8.3039e-015 1 4.44677e-016
    length 4.6813
    axis 0 0 0 xyz
  end
  begin
    id 7
    name Spine
    direction -0.000262373 0.999988 0.00493267
    length 10.1015
    axis -0.00246081 0.00062579 0.0150362 xyz
    dof rx ry rz
  end
  begin
    id 8
    name Spine1
    direction 0 0 0
    length 0
    axis -0.00349562 0.000650293 0.0196666 xyz
    dof rx ry rz
  end
  begin
    id 9
    name HEadDummy
    direction -0.000343232 0.999999 0.00123745
    length 3.43865
    axis -0.00349562 0.000650293 0.0196666 xyz
  end
  begin
    id 10
    name HEad
    direction -0.0461221 0.980933 0.188796
    length 5.12695
    axis -0.00351404 -7.04812 0.0199272 xyz
    dof rx ry rz
  end
  begin
    id 11
    name LeftShoulder1Dummy
    direction 0.998904 -0.0399089 -0.0244534
    length 3.5433
    axis -0.00349562 0.000650293 0.0196666 xyz
  end
  begin
    id 12
    name LeftShoulder1
    direction 0.99951 1.64443e-005 0.0312999
    length 4.05031
    axis -0.00349562 0.000650293 0.0196666 xyz
    dof rx ry rz
  end
  begin
    id 13
    name LeftArm
    direction 0.984791 0.0515299 0.165927
    length 12.9126
    axis -64.823 -10.7743 5.20463 xyz
    dof rx ry rz
  end
  begin
    id 14
    name LeftForeArm
    direction 0.984968 0.0534808 0.16425
    length 10.8596
    axis -30.0462 -7.70601 1.87451 xyz
    dof rx ry rz
  end
  begin
    id 15
    name LeftHand
    direction 0.975871 0.0289682 0.216418
    length 6.62295
    axis -20.1348 -6.98077 1.86072 xyz
    dof rx ry rz
  end
  begin
    id 16
    name RightShoulderDummy
    direction -0.998877 -0.0405946 -0.0244307
    length 3.5433
    axis -0.00349562 0.000650293 0.0196666 xyz
  end
  begin
    id 17
    name RightShoulder
    direction -0.998933 -0.0249743 -0.0388558
    length 4.05031
    axis -0.0205316 -4.02113 1.41395 xyz
    dof rx ry rz
  end
  begin
    id 18
    name RightArm
    direction -0.997559 0.068664 0.0127103
    length 12.9638
    axis -67.3882 1.84188 -6.15987 xyz
    dof rx ry rz
  end
  begin
    id 19
    name RightForeArm
    direction -0.991508 0.0912848 0.0926241
    length 10.8312
    axis -22.1975 3.41087 -4.28711 xyz
    dof rx ry rz
  end
  begin
    id 20
    name RightHand
    direction -0.989262 0.0600788 0.133232
    length 6.57864
    axis -12.2911 2.17515 -4.39675 xyz
    dof rx ry rz
  end
  begin
    id 21
    name LeftUpLegDummy
    direction 0.718183 -0.695806 0.00816078
    length 4.904
    axis 0 0 0 xyz
  end
  begin
    id 22
    name LeftUpLeg
    direction 0.0831398 -0.99469 0.0606531
    length 17.4976
    axis -1.71016 2.29552 4.63832 xyz
    dof rx ry rz
  end
  begin
    id 23
    name LeftLeg
    direction 0.0498442 -0.991778 -0.117862
    length 16.5821
    axis 5.13757 15.5727 5.13348 xyz
    dof rx ry rz
  end
  begin
    id 24
    name LeftFoot
    direction 0.269026 -0.433896 0.85986
    length 3.77069
    axis -0.576502 15.6961 4.10267 xyz
    dof rx ry rz
  end
  begin
    id 25
    name LeftToes
    direction 0.277311 0.0251143 0.960452
    length 3.85048
    axis -0.576502 15.6961 4.10267 xyz
    dof rx ry rz
  end
:hierarchy
  begin
    root RightUpLegDummy SpineDummy LeftUpLegDummy
    RightUpLegDummy RightUpLeg
    RightUpLeg RightLeg
    RightLeg RightFoot
    RightFoot RightToes
    SpineDummy Spine
    Spine Spine1
    Spine1 HEadDummy LeftShoulder1Dummy RightShoulderDummy
    HEadDummy HEad
    LeftShoulder1Dummy LeftShoulder1
    LeftShoulder1 LeftArm
    LeftArm LeftForeArm
    LeftForeArm LeftHand
    RightShoulderDummy RightShoulder
    RightShoulder RightArm
    RightArm RightForeArm
    RightForeArm RightHand
    LeftUpLegDummy LeftUpLeg
    LeftUpLeg LeftLeg
    LeftLeg LeftFoot
    LeftFoot LeftToes
  end

:SAMPLES-PER-SECOND 30
:FULLY-SPECIFIED
:DEGREES
31
root  -8.87574 37.9128 37.5186 13.0684 -10.6177 -1.76522
RightUpLeg  -34.6762 -6.49763 8.34357
RightLeg  32.234 8.9725 -5.71861
RightFoot  -15.0845 0.0847912 2.42457
RightToes  -5.82073e-011 -3.18055e-015 -2.98177e-016
Spine  19.0279 -1.27165 6.18321
Spine1  5.53588 -1.04654 -0.918002
HEad  -34.8841 8.85578 1.65228
LeftShoulder1  -3.88251e-019 9.70628e-020 -3.87848e-018
LeftArm  97.453 82.4422 72.0761
LeftForeArm  -1.83289 -1.4712 1.41131
LeftHand  -0.13221 2.94854 7.111
RightShoulder  7.55108 10.6115 35.4683
RightArm  49.2572 -56.7481 -61.4256
RightForeArm  -4.29316 7.57586 -7.35128
RightHand  -0.370408 -2.63668 -14.7372
LeftUpLeg  -36.5266 7.59335 -5.42598
LeftLeg  35.0674 -2.22907 9.63569
LeftFoot  -14.347 -0.0661078 -2.48482
LeftToes  5.79026e-011 9.70705e-012 -3.73859e-011
32
root  -8.80783 36.7366 37.2818 14.1829 -10.9903 -2.60081
RightUpLeg  -40.6844 -5.64593 9.31829
RightLeg  40.7023 9.61211 -6.84816
RightFoot  -17.6268 0.116348 1.60584
RightToes  -5.82073e-011 -3.18055e-015 -2.98177e-016
Spine  21.6452 -1.2891 7.48432
Spine1  4.76837 -0.798319 -1.57442
HEad  -36.4642 8.38148 2.46318
LeftShoulder1  -3.88251e-019 9.70628e-020 -3.87848e-018
LeftArm  107.354 79.1297 82.317
LeftForeArm  -2.58115 -2.11542 1.32741
LeftHand  -0.108541 2.84255 5.46118
RightShoulder  7.52823 10.6309 35.3105
RightArm  53.0515 -56.0404 -66.956
RightForeArm  -3.3569 6.53262 -7.27209
RightHand  -0.228316 -3.48311 -12.7777
LeftUpLeg  -42.9512 6.93676 -4.47012
LeftLeg  44.2586 -3.43693 11.7394
LeftFoot  -16.7849 -0.123932 -2.424
LeftToes  5.79026e-011 9.70705e-012 -3.73859e-011
33
root  -8.77236 35.3053 37.0706 14.8344 -11.7206 -2.90369
RightUpLeg  -46.7524 -4.46395 9.64116
RightLeg  49.8885 10.4152 -8.12219
RightFoot  -20.6922 0.135498 1.04328
RightToes  -5.82073e-011 -3.18055e-015 -2.98177e-016
Spine  23.8269 -1.05364 7.51743
Spine1  4.98532 -0.475638 -1.77771
HEad  -37.9845 8.01976 3.40435
LeftShoulder1  -3.88251e-019 9.70628e-020 -3.87848e-018
LeftArm  112.458 76.4054 87.2774
LeftForeArm  -2.45492 -2.51013 1.13942
LeftHand  -0.103849 2.55533 4.59892
RightShoulder  7.57866 10.6714 35.4744
RightArm  54.4171 -55.066 -70.0716
RightForeArm  -1.32513 5.13568 -7.35727
RightHand  -0.193735 -3.6301 -11.5279
LeftUpLeg  -48.7856 6.37461 -4.04636
LeftLeg  53.2539 -4.68026 14.1545
LeftFoot  -19.9875 -0.221126 -2.76222
LeftToes  5.79026e-011 9.70705e-012 -3.73859e-011
34
root  -8.75195 33.7027 36.9196 15.6251 -12.4331 -3.3243
RightUpLeg  -52.8069 -3.08291 10.0378
RightLeg  58.7679 11.2647 -9.57855
RightFoot  -23.8495 0.184929 1.13664
RightToes  -5.82073e-011 -3.18055e-015 -2.98177e-016
Spine  25.5357 -0.719912 7.43412
Spine1  5.34752 -0.20547 -1.53533
HEad  -39.289 7.79661 4.0945
LeftShoulder1  -3.88251e-019 9.70628e-020 -3.87848e-018
LeftArm  115.326 74.7387 89.9282
LeftForeArm  -1.21156 -2.29729 1.1804
LeftHand  -0.107216 2.28925 4.32086
RightShoulder  7.66346 10.7308 35.7678
RightArm  54.369 -54.3367 -71.4278
RightForeArm  -0.823682 4.05591 -7.58617
RightHand  -0.159822 -4.12416 -13.1183
LeftUpLeg  -54.4944 6.12193 -3.71541
LeftLeg  61.6741 -6.1171 16.7982
LeftFoot  -23.6475 -0.374537 -3.35749
LeftToes  5.79026e-011 9.70705e-012 -3.73859e-011
35
root  -8.72946 32.0294 36.8417 16.9142 -12.7709 -4.21037
RightUpLeg  -58.8269 -1.97577 10.9791
RightLeg  66.8329 12.238 -11.0476
RightFoot  -26.9757 0.283909 1.61122
RightToes  -5.82073e-011 -3.18055e-015 -2.98177e-016
Spine  26.8831 -0.472971 8.00999
Spine1  5.15676 0.0150282 -1.23158
HEad  -40.2692 7.46963 4.52587
LeftShoulder1  -3.88251e-019 9.70628e-020 -3.87848e-018
LeftArm  115.001 74.6277 89.879
LeftForeArm  1.22723 -1.02717 1.82345
LeftHand  -0.0956777 2.38867 3.93008
RightShoulder  7.72344 10.7785 35.9615
RightArm  53.4574 -54.2933 -71.0667
RightForeArm  -2.59103 3.4262 -7.8326
RightHand  0.0360506 -5.76133 -17.0558
LeftUpLeg  -60.5132 6.01856 -3.0547
LeftLeg  69.5064 -7.96925 19.3062
LeftFoot  -27.1374 -0.5778 -4.09198
LeftToes  5.79026e-011 9.70705e-012 -3.73859e-011
36
root  -8.71131 30.3825 36.8235 18.2901 -12.7872 -5.07907
RightUpLeg  -64.4359 -1.49349 12.0837
RightLeg  74.1922 13.4729 -11.9748
RightFoot  -30.1448 0.390331 1.94886
RightToes  -5.82073e-011 -3.18055e-015 -2.98177e-016
Spine  28.3387 -0.300796 8.59655
Spine1  4.26259 0.215006 -0.920414
HEad  -40.9943 6.95883 4.81992
LeftShoulder1  -3.88251e-019 9.70628e-020 -3.87848e-018
LeftArm  111.126 76.4369 86.4368
LeftForeArm  3.77026 0.688048 3.00384
LeftHand  -0.0761643 2.89237 3.71662
RightShoulder  7.67495 10.7745 35.7286
RightArm  51.4705 -55.2334 -68.179
RightForeArm  -4.18547 3.04045 -7.9782
RightHand  0.260081 -6.9692 -20.5418
LeftUpLeg  -66.3362 6.06582 -2.4549
LeftLeg  76.7211 -10.2763 20.8899
LeftFoot  -30.2329 -0.818914 -4.88669
LeftToes  5.79026e-011 9.70705e-012 -3.73859e-011
37
root  -8.70105 28.9317 36.8189 19.1405 -12.7232 -5.45668
RightUpLeg  -68.954 -1.48772 12.7968
RightLeg  80.5517 14.7313 -12.1477
RightFoot  -32.8637 0.472514 2.08841
RightToes  -5.82073e-011 -3.18055e-015 -2.98177e-016
Spine  30.4619 -0.169974 8.58238
Spine1  2.68755 0.351192 -0.500181
HEad  -41.5707 6.52567 4.99582
LeftShoulder1  -3.88251e-019 9.70628e-020 -3.87848e-018
LeftArm  101.901 80.0685 76.7074
LeftForeArm  4.72743 0.771279 4.06681
LeftHand  -0.0660481 3.64784 4.79227
RightShoulder  7.46953 10.6987 34.8655
RightArm  47.6776 -57.4246 -61.552
RightForeArm  -5.09679 2.99089 -8.0627
RightHand  0.282938 -6.93737 -22.3636
LeftUpLeg  -70.9307 6.25777 -2.34767
LeftLeg  82.7916 -12.4913 21.2915
LeftFoot  -32.7887 -1.07429 -5.67291
LeftToes  5.79026e-011 9.70705e-012 -3.73859e-011
38
root  -8.68852 27.8287 36.7981 19.5005 -12.6107 -5.51678
RightUpLeg  -72.2115 -1.50382 13.0457
RightLeg  85.2407 15.6639 -12.3194
RightFoot  -34.5683 0.562042 2.35834
RightToes  -5.82073e-011 -3.18055e-015 -2.98177e-016
Spine  33.0881 -0.169357 8.41066
Spine1  0.431406 0.379147 -0.183269
HEad  -41.8196 6.32892 5.04309
LeftShoulder1  -3.88251e-019 9.70628e-020 -3.87848e-018
LeftArm  70.4493 84.0293 42.971
LeftForeArm  4.05443 0.689653 3.63195
LeftHand  -0.0488678 4.36231 6.74565
RightShoulder  7.15939 10.5715 33.5681
RightArm  39.756 -60.6005 -49.0516
RightForeArm  -6.86704 3.07307 -8.35615
RightHand  0.279122 -6.88397 -22.8225
LeftUpLeg  -74.0913 6.32481 -2.45359
LeftLeg  87.1808 -14.1054 21.314
LeftFoot  -34.5867 -1.29138 -6.30445
LeftToes  5.79026e-011 9.70705e-012 -3.73859e-011
39
root  -8.67567 27.0561 36.8206 19.7155 -12.3879 -5.58382
RightUpLeg  -74.4326 -1.33814 13.0661
RightLeg  88.309 16.3158 -13.0316
RightFoot  -35.6778 0.691171 2.8679
RightToes  -5.82073e-011 -3.18055e-015 -2.98177e-016
Spine  35.3792 -0.352374 8.52964
Spine1  -2.23546 0.321932 -0.143165
HEad  -41.471 6.17807 5.00262
LeftShoulder1  -3.88251e-019 9.70628e-020 -3.87848e-018
LeftArm  8.32418 82.0811 -23.0116
LeftForeArm  3.03597 0.334915 1.79329
LeftHand  -0.0415767 4.51113 7.12429
RightShoulder  6.87417 10.4566 32.345
RightArm  24.3095 -62.4302 -27.7593
RightForeArm  -7.23628 2.54868 -8.78899
RightHand  0.323039 -7.38279 -20.41
LeftUpLeg  -76.2373 6.07771 -2.41246
LeftLeg  90.1044 -15.2214 21.6875
LeftFoot  -35.8987 -1.44619 -6.67898
LeftToes  5.79026e-011 9.70705e-012 -3.73859e-011
40
root  -8.66623 26.557 36.9376 19.5738 -12.2401 -5.62968
RightUpLeg  -75.3054 -1.18578 12.9616
RightLeg  90.3595 16.7976 -13.5406
RightFoot  -36.8073 0.818154 3.31623
RightToes  -5.82073e-011 -3.18055e-015 -2.98177e-016
Spine  36.8059 -0.545409 8.64774
Spine1  -4.59792 0.27693 -0.112191
HEad  -40.8469 5.94417 4.86027
LeftShoulder1  -3.88251e-019 9.70628e-020 -3.87848e-018
LeftArm  -13.2859 73.3663 -48.7625
LeftForeArm  1.8509 0.0156819 -0.253686
LeftHand  -0.0580912 3.87022 4.91266
RightShoulder  6.72063 10.4127 31.638
RightArm  5.43851 -58.5317 -1.50236
RightForeArm  -1.4644 1.46696 -8.69997
RightHand  0.106049 -6.18789 -14.0582
LeftUpLeg  -77.0837 5.73488 -2.38106
LeftLeg  92.0024 -16.0168 22.2069
LeftFoot  -37.0696 -1.57722 -6.9428
LeftToes  5.79026e-011 9.70705e-012 -3.73859e-011
41
root  -8.63984 26.4066 37.0636 18.6737 -12.4299 -5.50709
RightUpLeg  -74.4688 -1.2312 12.6417
RightLeg  91.2903 16.9724 -13.2463
RightFoot  -37.473 0.876307 3.48124
RightToes  -5.82073e-011 -3.18055e-015 -2.98177e-016
Spine  37.3494 -0.497667 8.50265
Spine1  -5.99662 0.359742 0.182322
HEad  -40.7865 5.85141 4.52506
LeftShoulder1  -3.88251e-019 9.70628e-020 -3.87848e-018
LeftArm  -20.151 61.1118 -58.7765
LeftForeArm  -0.747586 -0.691479 -1.31942
LeftHand  -0.0667919 2.80977 3.11487
RightShoulder  6.71671 10.4408 31.5581
RightArm  -4.8189 -47.7716 18.2562
RightForeArm  8.22551 2.28386 -7.59223
RightHand  -0.380272 -1.037 -9.49568
LeftUpLeg  -76.115 5.5866 -2.55148
LeftLeg  92.6112 -16.3175 22.5652
LeftFoot  -37.647 -1.69027 -7.28671
LeftToes  5.79026e-011 9.70705e-012 -3.73859e-011
42
root  -8.59231 26.6317 37.1264 17.4293 -12.8608 -5.26627
RightUpLeg  -72.6619 -1.45543 12.1385
RightLeg  90.7013 16.8067 -12.8952
RightFoot  -37.1817 0.856942 3.43755
RightToes  -5.82073e-011 -3.18055e-015 -2.98177e-016
Spine  37.0075 -0.178846 8.34756
Spine1  -6.75537 0.60271 0.584773
HEad  -41.6173 6.09669 4.04058
LeftShoulder1  -3.88251e-019 9.70628e-020 -3.87848e-018
LeftArm  -22.8615 47.1907 -63.6491
LeftForeArm  -4.7981 -4.99795 -1.06502
LeftHand  -0.174106 1.09554 4.86634
RightShoulder  6.74507 10.4806 31.6258
RightArm  -3.55432 -34.3728 29.7572
RightForeArm  10.3861 9.11598 -6.80347
RightHand  -1.31461 4.80438 -14.3264
LeftUpLeg  -74.0514 5.63519 -2.78348
LeftLeg  91.7495 -16.0453 22.9557
LeftFoot  -37.3612 -1.72461 -7.53596
LeftToes  5.79026e-011 9.70705e-012 -3.73859e-011
